<?xml version="1.0" encoding="utf-8"?>
<!-- Generator: Adobe Illustrator 23.0.6, SVG Export Plug-In . SVG Version: 6.00 Build 0)  -->
<svg version="1.1" id="Слой_1" xmlns="http://www.w3.org/2000/svg" xmlns:xlink="http://www.w3.org/1999/xlink" x="0px" y="0px"
	 viewBox="0 0 222.5 75" style="enable-background:new 0 0 222.5 75;" xml:space="preserve">
<style type="text/css">
	.st0{fill:#0056A3;}
	.st1{fill:#FFFFFF;}
	.st2{fill:#FFFFFF;stroke:#0056A3;stroke-width:5;stroke-miterlimit:10;}
</style>
<g>
	<rect x="84.5" class="st0" width="138" height="75"/>
</g>
<g>
	<path class="st1" d="M98.41,17.28c-0.64-1.42-1.62-2.47-2.94-3.14c-1.21-0.6-2.73-0.9-4.59-0.9v-3.09c3.99,0,7.04,0.98,9.14,2.93
		c1.94,1.79,2.91,4.24,2.91,7.33c0,3-1.03,5.44-3.09,7.3c-2.16,1.95-5.15,2.93-8.96,2.93v-3.11c2.63,0,4.68-0.72,6.15-2.15
		c1.34-1.32,2.02-3.08,2.02-5.27h-6.01v-2.82H98.41z"/>
	<path class="st1" d="M110.36,20.28v9.77h-3.68V10.59h3.65v6.56c0.84,0.22,1.62,0.33,2.36,0.33c0.82,0,1.46-0.15,1.93-0.44
		c0.55-0.34,0.82-0.87,0.82-1.58l-0.03-4.88h3.67l0.12,5.08c0,1.35-0.27,2.4-0.82,3.14c-0.39,0.53-0.96,0.94-1.72,1.22l4.03,10.02
		h-3.82l-3.88-9.77H110.36z"/>
	<path class="st1" d="M127.9,20.38c0,2.05,0.67,3.73,2.02,5.04c1.44,1.39,3.47,2.09,6.08,2.09v3.13c-3.8,0-6.78-0.98-8.94-2.93
		c-2.06-1.86-3.1-4.3-3.1-7.3c0-3.11,0.95-5.55,2.86-7.33c2.08-1.95,5.13-2.93,9.12-2.93v3.13c-2.67,0-4.71,0.69-6.11,2.06
		C128.54,16.59,127.9,18.27,127.9,20.38z"/>
	<path class="st1" d="M139.97,30.04V10.59h12.82v19.45h-3.62V13.41h-5.59v16.63H139.97z"/>
	<path class="st1" d="M157.8,30.04V10.59h4.08c2.73,0,4.7,1,5.9,3.01c0.78,1.28,1.17,2.77,1.17,4.45c0,2.42-0.48,4.26-1.43,5.51
		c-0.84,1.08-1.9,1.62-3.18,1.62c-1.03,0-1.96-0.34-2.79-1.02v5.88H157.8z M161.51,13.24v6c0,0.94,0.17,1.66,0.52,2.17
		c0.33,0.5,0.74,0.76,1.23,0.76c0.51,0,0.95-0.28,1.31-0.85c0.37-0.57,0.55-1.38,0.55-2.43c0-1.95-0.29-3.39-0.86-4.3
		c-0.57-0.91-1.37-1.37-2.38-1.37C161.71,13.23,161.59,13.24,161.51,13.24z"/>
	<path class="st1" d="M172.62,30.04V10.59h11.04v2.88h-7.36v3.76h5.9v2.88h-5.9v7.06h7.33v2.88H172.62z"/>
	<path class="st1" d="M190.54,20.38c0,2.05,0.67,3.73,2.02,5.04c1.44,1.39,3.47,2.09,6.08,2.09v3.13c-3.8,0-6.78-0.98-8.94-2.93
		c-2.06-1.86-3.1-4.3-3.1-7.3c0-3.11,0.95-5.55,2.86-7.33c2.08-1.95,5.13-2.93,9.12-2.93v3.13c-2.67,0-4.71,0.69-6.11,2.06
		C191.18,16.59,190.54,18.27,190.54,20.38z"/>
	<path class="st1" d="M205.92,20.38c0,2.05,0.67,3.73,2.02,5.04c1.44,1.39,3.47,2.09,6.08,2.09v3.13c-3.8,0-6.78-0.98-8.94-2.93
		c-2.06-1.86-3.1-4.3-3.1-7.3c0-3.11,0.95-5.55,2.86-7.33c2.08-1.95,5.13-2.93,9.12-2.93v3.13c-2.67,0-4.71,0.69-6.11,2.06
		C206.57,16.59,205.92,18.27,205.92,20.38z"/>
	<path class="st1" d="M91.86,63.96V34.79h19.23v29.18h-5.42V39.02h-8.38v24.94H91.86z"/>
	<path class="st1" d="M135.52,38.28c1.87,2.77,2.8,6.42,2.8,10.95c0,4.58-0.9,8.26-2.71,11.03c-1.9,2.9-4.53,4.35-7.89,4.35
		c-3.3,0-5.81-1.38-7.53-4.15c-1.75-2.77-2.62-6.5-2.62-11.19c0-4.53,0.9-8.2,2.71-10.99c1.81-2.77,4.29-4.15,7.44-4.15
		C131.05,34.13,133.65,35.51,135.52,38.28z M123.98,57.13c0.85,2.09,2.1,3.14,3.73,3.14c1.69,0,2.96-1.03,3.82-3.1
		c0.85-2.07,1.28-4.71,1.28-7.93c0-3.34-0.37-5.9-1.1-7.69c-0.82-2.04-2.16-3.06-4-3.06c-1.66,0-2.9,1.01-3.73,3.02
		c-0.85,2-1.28,4.6-1.28,7.81C122.7,52.43,123.12,55.03,123.98,57.13z"/>
	<path class="st1" d="M156.53,34.79h5.42v29.18h-5.42V49.59h-4.91c-2.33,0-4.3-0.64-5.92-1.91c-1.66-1.25-2.49-2.81-2.49-4.69v-8.21
		h5.38v7.65c0,0.78,0.27,1.4,0.81,1.87c0.75,0.62,1.87,0.93,3.36,0.93h3.76V34.79z"/>
	<path class="st1" d="M177.91,63.96h-5.42V39.1h-5.13v-4.31h15.75v4.31h-5.2V63.96z"/>
	<path class="st1" d="M189.3,34.79h8.76c2.58,0,4.62,0.52,6.12,1.57c1.87,1.31,2.8,3.38,2.8,6.2l2.8,21.41h-5.42l-1.7-14.53h-8.49
		l-0.58,14.53h-5.42L189.3,34.79z M194.25,45.16h7.78c-0.25-2.25-0.69-3.8-1.3-4.65c-0.73-0.97-1.96-1.45-3.67-1.45h-2.6
		L194.25,45.16z"/>
</g>
<rect x="2.5" y="2.5" class="st2" width="75" height="70"/>
<path class="st0" d="M62.88,23.25V9H17.12v14.25H9.5V66h61V23.25H62.88z M20.94,12.56h38.12v18.01L40,45.84L20.94,30.58V12.56z
	 M66.69,62.44H13.31V29.16L40,50.53l26.69-21.38V62.44z M55.25,19.69h-30.5v-3.56h30.5V19.69z M47.62,26.81H24.75v-3.56h22.88V26.81
	z"/>
</svg>
