<?xml version="1.0" encoding="utf-8"?>
<!-- Generator: Adobe Illustrator 23.0.6, SVG Export Plug-In . SVG Version: 6.00 Build 0)  -->
<svg version="1.1" id="Слой_1" xmlns="http://www.w3.org/2000/svg" xmlns:xlink="http://www.w3.org/1999/xlink" x="0px" y="0px"
	 viewBox="0 0 48 8" style="enable-background:new 0 0 48 8;" xml:space="preserve">
<style type="text/css">
	.st0{fill:none;stroke:#F8E600;stroke-width:0.75;stroke-miterlimit:10;}
	.st1{fill:none;stroke:#F8E600;stroke-width:0.25;stroke-miterlimit:10;}
	.st2{fill:#032D8B;}
	.st3{fill:#109BE1;}
</style>
<g>
	<path class="st2" d="M5.27,2.35c0,0.61-0.25,1.09-0.75,1.47S3.31,4.37,2.41,4.37h-0.5L1.53,6.03H0.21l1.17-5.09h1.83
		c0.33,0,0.62,0.02,0.87,0.07c0.25,0.05,0.46,0.12,0.64,0.24C4.9,1.35,5.04,1.5,5.13,1.68C5.22,1.86,5.27,2.08,5.27,2.35z
		 M3.87,2.47c0-0.2-0.07-0.35-0.22-0.44S3.29,1.89,3.01,1.89H2.48L2.13,3.41H2.6c0.4,0,0.71-0.08,0.93-0.24
		C3.76,3.01,3.87,2.77,3.87,2.47z"/>
	<path class="st2" d="M7.69,5.62C7.62,5.67,7.52,5.73,7.41,5.8C7.3,5.87,7.2,5.93,7.11,5.97C6.98,6.02,6.86,6.06,6.75,6.09
		C6.64,6.12,6.48,6.13,6.28,6.13c-0.32,0-0.58-0.09-0.78-0.27c-0.2-0.18-0.3-0.41-0.3-0.7c0-0.3,0.07-0.56,0.22-0.77
		s0.36-0.38,0.64-0.5C6.32,3.77,6.63,3.68,7,3.63c0.37-0.05,0.76-0.09,1.19-0.12c0-0.01,0.01-0.04,0.02-0.07
		c0.01-0.03,0.01-0.07,0.01-0.1c0-0.16-0.08-0.27-0.23-0.34c-0.15-0.06-0.37-0.1-0.67-0.1c-0.2,0-0.43,0.03-0.67,0.1
		C6.4,3.08,6.21,3.13,6.09,3.18H5.98l0.18-0.91C6.3,2.23,6.52,2.19,6.82,2.15s0.6-0.07,0.9-0.07c0.6,0,1.04,0.08,1.32,0.24
		s0.42,0.4,0.42,0.73c0,0.05,0,0.1-0.01,0.18S9.44,3.36,9.42,3.42l-0.6,2.61H7.6L7.69,5.62z M8.02,4.22C7.8,4.23,7.59,4.26,7.4,4.28
		S7.05,4.34,6.91,4.39C6.77,4.44,6.67,4.51,6.59,4.6S6.48,4.81,6.48,4.96c0,0.13,0.05,0.23,0.15,0.28c0.1,0.05,0.24,0.08,0.42,0.08
		c0.12,0,0.25-0.03,0.39-0.08c0.14-0.06,0.27-0.13,0.39-0.21L8.02,4.22z"/>
	<path class="st2" d="M11.36,7.44h-1.35l0.98-1.48l-0.63-3.76h1.26l0.33,2.51l1.46-2.51h1.3L11.36,7.44z"/>
	<path class="st3" d="M16.44,6.12c-0.44,0-0.82-0.04-1.16-0.11s-0.63-0.17-0.88-0.28l0.26-1.22h0.14c0.23,0.21,0.51,0.38,0.83,0.5
		c0.32,0.12,0.66,0.18,1.02,0.18c0.37,0,0.65-0.05,0.82-0.15c0.18-0.1,0.26-0.25,0.26-0.44c0-0.07-0.01-0.13-0.04-0.18
		c-0.03-0.05-0.08-0.1-0.17-0.15s-0.19-0.1-0.34-0.15C17.05,4.06,16.86,4,16.64,3.94c-0.25-0.07-0.47-0.14-0.67-0.22
		s-0.37-0.17-0.5-0.28c-0.14-0.11-0.25-0.24-0.32-0.39c-0.07-0.15-0.11-0.32-0.11-0.52c0-0.51,0.22-0.92,0.67-1.22
		c0.45-0.3,1.07-0.46,1.85-0.46c0.38,0,0.73,0.03,1.07,0.09s0.62,0.14,0.85,0.25l-0.25,1.17h-0.14c-0.18-0.16-0.41-0.3-0.7-0.41
		c-0.29-0.11-0.61-0.17-0.95-0.17c-0.34,0-0.6,0.05-0.78,0.15c-0.18,0.1-0.28,0.23-0.28,0.4c0,0.08,0.01,0.15,0.04,0.2
		s0.08,0.1,0.17,0.15c0.07,0.05,0.19,0.1,0.35,0.15c0.16,0.05,0.34,0.11,0.55,0.17c0.57,0.15,0.98,0.33,1.22,0.54
		s0.37,0.48,0.37,0.83c0,0.29-0.07,0.55-0.2,0.78c-0.13,0.22-0.31,0.4-0.55,0.54c-0.24,0.15-0.52,0.26-0.83,0.32
		S16.83,6.12,16.44,6.12z"/>
	<path class="st3" d="M20.89,7.44h-1.35l0.98-1.48l-0.63-3.76h1.26l0.33,2.51l1.46-2.51h1.3L20.89,7.44z"/>
	<path class="st3" d="M25.51,6.13c-0.33,0-0.65-0.03-0.95-0.09s-0.54-0.13-0.71-0.22l0.24-1.01h0.11c0.05,0.04,0.11,0.09,0.19,0.14
		c0.08,0.05,0.19,0.11,0.33,0.16c0.12,0.05,0.26,0.1,0.42,0.14c0.16,0.04,0.33,0.06,0.52,0.06c0.28,0,0.48-0.03,0.62-0.1
		c0.14-0.06,0.21-0.15,0.21-0.27c0-0.09-0.05-0.16-0.15-0.21c-0.1-0.05-0.3-0.11-0.61-0.18c-0.52-0.12-0.88-0.27-1.07-0.44
		c-0.19-0.17-0.29-0.38-0.29-0.64c0-0.43,0.19-0.77,0.58-1.02c0.39-0.25,0.91-0.37,1.57-0.37c0.29,0,0.57,0.03,0.86,0.09
		c0.29,0.06,0.5,0.12,0.63,0.19l-0.23,0.97h-0.11c-0.16-0.13-0.36-0.23-0.59-0.31c-0.23-0.08-0.46-0.12-0.71-0.12
		c-0.26,0-0.46,0.03-0.6,0.09c-0.14,0.06-0.21,0.16-0.21,0.29c0,0.1,0.06,0.18,0.18,0.23c0.12,0.05,0.31,0.11,0.57,0.17
		c0.48,0.1,0.83,0.24,1.05,0.4c0.21,0.16,0.32,0.38,0.32,0.67c0,0.43-0.2,0.77-0.59,1.01C26.71,6.01,26.18,6.13,25.51,6.13z"/>
	<path class="st3" d="M29.66,6.1c-0.43,0-0.73-0.07-0.91-0.21c-0.18-0.14-0.27-0.35-0.27-0.62c0-0.07,0.01-0.14,0.02-0.21
		c0.01-0.07,0.03-0.15,0.04-0.24L28.95,3h-0.51l0.19-0.81h0.51l0.25-1.1h1.23l-0.25,1.1h1.15L31.34,3h-1.15l-0.32,1.38
		c-0.02,0.1-0.04,0.19-0.07,0.29c-0.02,0.1-0.03,0.18-0.03,0.25c0,0.14,0.04,0.23,0.11,0.29c0.08,0.05,0.19,0.08,0.35,0.08
		c0.06,0,0.15-0.01,0.25-0.04c0.1-0.02,0.19-0.05,0.25-0.08h0.1l-0.19,0.82c-0.14,0.03-0.29,0.06-0.44,0.08
		C30.06,6.09,29.87,6.1,29.66,6.1z"/>
	<path class="st3" d="M33.54,6.13c-0.65,0-1.16-0.15-1.52-0.43c-0.36-0.29-0.53-0.69-0.53-1.2c0-0.35,0.06-0.67,0.17-0.96
		c0.12-0.29,0.28-0.55,0.5-0.77c0.21-0.21,0.47-0.38,0.79-0.51c0.31-0.12,0.66-0.19,1.04-0.19c0.57,0,1,0.12,1.29,0.35
		c0.29,0.23,0.44,0.57,0.44,1.02c0,0.16-0.02,0.31-0.05,0.46c-0.03,0.15-0.07,0.3-0.12,0.44H32.7c0,0.01,0,0.03,0,0.04
		c0,0.01,0,0.03,0,0.04c0,0.27,0.09,0.48,0.28,0.63s0.47,0.23,0.86,0.23c0.27,0,0.52-0.05,0.77-0.14s0.45-0.19,0.63-0.3h0.14
		l-0.23,0.99C34.9,5.92,34.65,6,34.39,6.05C34.12,6.11,33.84,6.13,33.54,6.13z M34.48,3.62c0.01-0.04,0.01-0.08,0.02-0.11
		c0-0.03,0-0.07,0-0.11c0-0.18-0.06-0.32-0.17-0.42c-0.11-0.1-0.27-0.14-0.48-0.14c-0.25,0-0.47,0.07-0.64,0.21s-0.3,0.33-0.39,0.57
		H34.48z"/>
	<path class="st3" d="M42.94,3.04c0,0.07,0,0.15-0.02,0.23c-0.01,0.08-0.03,0.17-0.05,0.26l-0.58,2.5h-1.25l0.45-1.92
		c0.03-0.13,0.06-0.26,0.08-0.38c0.02-0.12,0.04-0.22,0.04-0.29c0-0.13-0.04-0.23-0.11-0.29s-0.2-0.09-0.39-0.09
		c-0.09,0-0.19,0.02-0.3,0.06c-0.11,0.04-0.25,0.1-0.41,0.19l-0.63,2.72h-1.25l0.45-1.92c0.03-0.11,0.05-0.23,0.08-0.36
		s0.04-0.23,0.04-0.3c0-0.14-0.03-0.24-0.1-0.3c-0.07-0.06-0.2-0.09-0.39-0.09c-0.1,0-0.21,0.02-0.32,0.07
		c-0.12,0.05-0.25,0.11-0.39,0.18l-0.63,2.72h-1.24l0.89-3.84h1.24l-0.1,0.42c0.25-0.17,0.48-0.3,0.68-0.39s0.42-0.14,0.65-0.14
		c0.25,0,0.46,0.06,0.64,0.17c0.17,0.11,0.29,0.28,0.36,0.5c0.31-0.22,0.58-0.39,0.82-0.5c0.24-0.11,0.47-0.17,0.7-0.17
		c0.34,0,0.59,0.08,0.77,0.25S42.94,2.74,42.94,3.04z"/>
	<path class="st3" d="M44.91,6.13c-0.33,0-0.65-0.03-0.95-0.09s-0.54-0.13-0.71-0.22l0.24-1.01h0.11c0.05,0.04,0.11,0.09,0.19,0.14
		c0.08,0.05,0.19,0.11,0.33,0.16c0.12,0.05,0.26,0.1,0.42,0.14c0.16,0.04,0.33,0.06,0.52,0.06c0.28,0,0.48-0.03,0.62-0.1
		c0.14-0.06,0.21-0.15,0.21-0.27c0-0.09-0.05-0.16-0.15-0.21c-0.1-0.05-0.3-0.11-0.61-0.18c-0.52-0.12-0.88-0.27-1.07-0.44
		c-0.19-0.17-0.29-0.38-0.29-0.64c0-0.43,0.19-0.77,0.58-1.02c0.39-0.25,0.91-0.37,1.57-0.37c0.29,0,0.57,0.03,0.86,0.09
		c0.29,0.06,0.5,0.12,0.63,0.19l-0.23,0.97h-0.11c-0.16-0.13-0.36-0.23-0.59-0.31c-0.23-0.08-0.46-0.12-0.71-0.12
		c-0.26,0-0.46,0.03-0.6,0.09c-0.14,0.06-0.21,0.16-0.21,0.29c0,0.1,0.06,0.18,0.18,0.23c0.12,0.05,0.31,0.11,0.57,0.17
		c0.48,0.1,0.83,0.24,1.05,0.4c0.21,0.16,0.32,0.38,0.32,0.67c0,0.43-0.2,0.77-0.59,1.01C46.11,6.01,45.58,6.13,44.91,6.13z"/>
</g>
</svg>
