<?xml version="1.0" encoding="utf-8"?>
<!-- Generator: Adobe Illustrator 19.0.0, SVG Export Plug-In . SVG Version: 6.00 Build 0)  -->
<svg version="1.1" id="Layer_1" xmlns="http://www.w3.org/2000/svg" xmlns:xlink="http://www.w3.org/1999/xlink" x="0px" y="0px"
	 viewBox="0 0 86.8 94" style="enable-background:new 0 0 86.8 94;" xml:space="preserve">
<style type="text/css">
	.st0{fill-rule:evenodd;clip-rule:evenodd;fill:#65B94D;}
</style>
<g id="XMLID_483_">
	<path id="XMLID_490_" class="st0" d="M86,31.2c-0.5-4.8-4.1-11.1-7.9-14c0,0-5.8-4.3-13-8.5c-7.2-4.3-13.8-7.2-13.8-7.2
		c-2.2-1-5.1-1.5-7.9-1.5c-2.9,0-5.8,0.5-7.9,1.5c0,0-6.5,2.9-13.8,7.2c-7.2,4.3-13,8.5-13,8.5c-3.9,2.9-7.4,9.2-7.9,14
		c0,0-0.8,7.2-0.8,15.8c0,8.5,0.8,15.8,0.8,15.8c0.5,4.8,4.1,11.1,7.9,14c0,0,5.8,4.3,13,8.6c7.2,4.3,13.8,7.2,13.8,7.2
		c2.2,1,5.1,1.5,7.9,1.5c2.9,0,5.8-0.5,7.9-1.5c0,0,6.5-2.9,13.8-7.2c7.2-4.3,13-8.6,13-8.6c3.9-2.9,7.4-9.2,7.9-14
		c0,0,0.8-7.2,0.8-15.8C86.8,38.5,86,31.2,86,31.2z M82,62.3c-0.4,3.8-3.4,9-6.3,11.2c-0.1,0-5.7,4.2-12.6,8.3
		c-6.9,4.1-13.3,7-13.4,7c-1.6,0.7-3.9,1.1-6.3,1.1s-4.7-0.4-6.3-1.1c-0.1,0-6.4-2.9-13.4-7c-6.9-4.1-12.6-8.3-12.6-8.3
		c-3-2.2-5.9-7.5-6.3-11.2C4.7,62.3,4,55.2,4,47c0-8.2,0.7-15.3,0.7-15.3c0.4-3.8,3.4-9,6.3-11.2c0.1,0,5.7-4.2,12.6-8.3
		c6.9-4.1,13.3-7,13.4-7C38.7,4.4,41,4,43.4,4c2.4,0,4.7,0.4,6.3,1.1c0.1,0,6.4,2.9,13.4,7c6.9,4.1,12.6,8.3,12.6,8.3
		c3,2.2,5.9,7.5,6.3,11.2c0,0.1,0.7,7.1,0.7,15.3C82.8,55.2,82,62.3,82,62.3z"/>
	<path id="XMLID_485_" class="st0" d="M62.6,33l0-4.3c0-1.7-0.7-3.2-1.9-4.2c-1.3-1-3-1.4-4.9-1l-30.3,3.5c-5,0.6-6,2.9-6,4.8
		l0,30.1c0,2.9,2.4,5.3,5.3,5.3h37.4c2.9,0,5.3-2.4,5.3-5.3V38.3C67.4,35.5,65.3,33.3,62.6,33z M63.4,53.7c-0.1,0-0.2,0-0.4,0h-9.4
		c-2.2,0-4-1.8-4-4c0-2.2,1.8-4,4-4H63c0.1,0,0.2,0,0.4,0V53.7z M25.9,31.1l30.5-3.5c0.1,0,0.1,0,0.2,0c0.7-0.2,1.3-0.1,1.6,0.2
		c0.3,0.2,0.4,0.6,0.4,1.1l0,4.2H24.7c0,0-0.1,0-0.1,0l-0.1,0c-0.6,0-0.8-0.2-1.1-0.7l0-0.3C23.4,31.7,23.9,31.3,25.9,31.1z
		 M62.1,63.4H24.7c-0.7,0-1.3-0.6-1.3-1.3V36.9c0.5,0.1,0.9,0.1,1.4,0.1h37.3c0.7,0,1.3,0.6,1.3,1.3v3.5c-0.1,0-0.2,0-0.4,0h-9.4
		c-4.4,0-8,3.6-8,8c0,4.4,3.6,8,8,8H63c0.1,0,0.2,0,0.4,0v4.4C63.4,62.8,62.8,63.4,62.1,63.4z"/>
	<circle id="XMLID_484_" class="st0" cx="53.7" cy="49.7" r="2.1"/>
</g>
</svg>
