<svg id="Layer_1" data-name="Layer 1" xmlns="http://www.w3.org/2000/svg" xmlns:xlink="http://www.w3.org/1999/xlink" viewBox="0 0 595.28 55.58"><defs><style>.cls-1{fill:#5a5a5a;}.cls-2{mask:url(#mask);}.cls-3{fill:none;}</style><mask id="mask" x="-59.53" y="-5.56" width="714.33" height="66.69" maskUnits="userSpaceOnUse"><g id="TranspMask"><rect class="cls-1" x="-59.53" y="-5.56" width="714.33" height="66.69"/></g></mask></defs><title>Artboard 1</title><g id="Document"><g id="Spread"><g id="Layer_1-2" data-name="Layer 1"><g class="cls-2"><g id="Group"><g id="Group_1" data-name="Group 1"><path class="cls-3" d="M337.76,0V55.58H448.92V0Z"/><g id="Group_2" data-name="Group 2"><path d="M353.53,52.51l-4.42-11.9h6.22V35.33h2.48c4.78,0,7.82-3.18,7.82-6.65,0-3.79-3.05-6.25-7.82-6.25h-8.89V40.1L338.64,12.31l53.77-3,6.7,16.43a48,48,0,0,0-5.66,7.18V22.43H387V37.5l-.83-.77-.65-.09-.56-.08V35.12c-2.22,1.19-3.65,1.12-5.84,1.14a4.78,4.78,0,0,1-4.75-4.63,5.29,5.29,0,0,1,4.86-5.22A9.41,9.41,0,0,1,385,27.92l0-4.19A14.7,14.7,0,0,0,377.67,22c-5.87,0-9.95,3.89-9.95,9.67S372,41,377.67,41l1.4,0a1.33,1.33,0,0,0,0,.24l0,.67,1.8,2.13Zm49-18.36L403.67,37l-4,1.26C400.5,36.9,401.47,35.51,402.51,34.16Zm9.62.86a2,2,0,0,1-.57-1.52,2.14,2.14,0,0,1,.57-1.59,2.08,2.08,0,0,1,1.52-.56,1.93,1.93,0,0,1,1.33.44,1.56,1.56,0,0,1,.46.73l-.89.23a.82.82,0,0,0-.34-.52,1.06,1.06,0,0,0-.61-.18,1,1,0,0,0-.79.32,1.4,1.4,0,0,0-.31,1,1.72,1.72,0,0,0,.28,1.12,1.18,1.18,0,0,0,.8.33,1,1,0,0,0,.62-.21,1.3,1.3,0,0,0,.37-.69l.87.26a1.8,1.8,0,0,1-.67,1,2.09,2.09,0,0,1-1.18.33A2,2,0,0,1,412.14,35Zm4.5,0a2,2,0,0,1-.59-1.54,2.3,2.3,0,0,1,.2-1,2,2,0,0,1,.42-.58,1.55,1.55,0,0,1,.58-.35,2.61,2.61,0,0,1,1-.16,2.32,2.32,0,0,1,1.58.54,2.15,2.15,0,0,1,.58,1.57,2.05,2.05,0,0,1-.58,1.56,2.48,2.48,0,0,1-3.16,0Zm4.43.47V31.42h1.34l.82,2.79.8-2.79h1.37v4.07h-.85V32.28l-.89,3.21h-.87l-.88-3.21v3.21Zm5.21,0V31.42h1.45a5.47,5.47,0,0,1,1.08,0,1.38,1.38,0,0,1,.64.4,1.33,1.33,0,0,1,.26.81,1.28,1.28,0,0,1-.15.64,1.39,1.39,0,0,1-.37.4,1.21,1.21,0,0,1-.47.18,4,4,0,0,1-.93.08h-.6v1.52Zm4.19,0v-4h.88v3.37h2.26v.68Zm3.77,0V31.42h.88v4.07Zm1.29,0,1.74-4.07h1L440,35.49h-1l-.4-.91h-1.78l-.36.91Zm5,0V31.42h.88l1.83,2.74V31.42H444v4.07h-.9l-1.8-2.64v2.64Zm5.5,0v-3.4h-1.33v-.67h3.55v.67H446.9v3.4Zm-26.9-1a1.52,1.52,0,0,0,.35-1.09,1.47,1.47,0,0,0-.34-1,1.17,1.17,0,0,0-.9-.35,1.14,1.14,0,0,0-.89.35,1.79,1.79,0,0,0,0,2.11,1.25,1.25,0,0,0,1.77,0Zm19.25-.62-.61-1.54-.61,1.54Zm-10-.7a.38.38,0,0,0,.28-.22.39.39,0,0,0,.11-.3.47.47,0,0,0-.15-.37.57.57,0,0,0-.36-.17,3.12,3.12,0,0,0-.64-.05h-.44v1.18h.5A2.29,2.29,0,0,0,428.38,33.2Zm-73-2V26.36h1.27c1.54,0,2.63.66,2.63,2.23a2.54,2.54,0,0,1-2.63,2.64Zm72.14-3a4.93,4.93,0,0,1-1.56-3.3l2.53-.23a3.12,3.12,0,0,0,.93,1.86,2.81,2.81,0,0,0,1.88.59,2.9,2.9,0,0,0,1.9-.51,1.57,1.57,0,0,0,.64-1.24,1.22,1.22,0,0,0-.27-.8,2.2,2.2,0,0,0-.94-.54c-.3-.12-1-.3-2.09-.56a7,7,0,0,1-2.93-1.28,3.32,3.32,0,0,1-1.2-2.57,3.22,3.22,0,0,1,.56-1.85,3.54,3.54,0,0,1,1.61-1.31,6.73,6.73,0,0,1,2.54-.45,5.38,5.38,0,0,1,3.65,1.07A3.72,3.72,0,0,1,436,19.91l-2.6.12a2.18,2.18,0,0,0-.73-1.43,2.5,2.5,0,0,0-1.64-.45,2.92,2.92,0,0,0-1.79.47.93.93,0,0,0-.41.79,1,1,0,0,0,.38.78,6.48,6.48,0,0,0,2.4.87,12.2,12.2,0,0,1,2.81.93,3.58,3.58,0,0,1,1.43,1.31,3.85,3.85,0,0,1,.51,2.06,3.76,3.76,0,0,1-.61,2.06A3.71,3.71,0,0,1,434,28.85a7.12,7.12,0,0,1-2.81.47A5.61,5.61,0,0,1,427.48,28.19Zm12,0a4.88,4.88,0,0,1-1.57-3.3l2.53-.23a3.13,3.13,0,0,0,.94,1.86,2.8,2.8,0,0,0,1.89.59,2.94,2.94,0,0,0,1.9-.51,1.58,1.58,0,0,0,.63-1.24,1.27,1.27,0,0,0-.26-.8,2.29,2.29,0,0,0-.94-.54c-.3-.12-1-.3-2.09-.56a7,7,0,0,1-2.93-1.28,3.34,3.34,0,0,1-.63-4.42,3.51,3.51,0,0,1,1.61-1.31,6.65,6.65,0,0,1,2.54-.45,5.37,5.37,0,0,1,3.66,1.07,3.7,3.7,0,0,1,1.29,2.84l-2.62.12a2.12,2.12,0,0,0-.72-1.43,2.54,2.54,0,0,0-1.65-.45,3,3,0,0,0-1.78.47,1,1,0,0,0,0,1.57,6.32,6.32,0,0,0,2.4.87,12.46,12.46,0,0,1,2.81.93,3.63,3.63,0,0,1,1.42,1.31,3.81,3.81,0,0,1,.52,2.06,3.74,3.74,0,0,1-2.36,3.49,7.09,7.09,0,0,1-2.8.47A5.62,5.62,0,0,1,439.5,28.19Zm-26,.91V16.24h4.76a9.4,9.4,0,0,1,2.45.24,4.37,4.37,0,0,1,1.95,1.2,5.43,5.43,0,0,1,1.23,2.08,9.37,9.37,0,0,1,.43,3,8.48,8.48,0,0,1-.4,2.74,5.58,5.58,0,0,1-1.37,2.26,4.62,4.62,0,0,1-1.84,1,7.63,7.63,0,0,1-2.3.28Zm6.13-2.29a2.61,2.61,0,0,0,1.05-.55A2.93,2.93,0,0,0,421.4,25a8.37,8.37,0,0,0,.26-2.36,7.56,7.56,0,0,0-.26-2.28,2.77,2.77,0,0,0-.74-1.24,2.54,2.54,0,0,0-1.2-.61,12.72,12.72,0,0,0-2.14-.12h-1.17v8.51h1.94A8.16,8.16,0,0,0,419.67,26.82Zm-26.11-7.72a3.7,3.7,0,1,0-5,1.66A3.7,3.7,0,0,0,393.56,19.09Z"/><path d="M410.35,22.39c-9.24,9-15.09,17.62-18.12,26.25h-4.82l-6.35-7.47c0-1,1-3,4.24-2.57l4.75,4.52c3.5-5.71,4.48-10.81,14.62-20Z"/></g><path class="cls-3" d="M301.29,0V55.59h36.47V0Z"/></g><g id="Group_3" data-name="Group 3"><path class="cls-3" d="M0,0V55.58H131.65V0Z"/><g id="Group_4" data-name="Group 4"><path d="M66.15,51.16l3-4.49c1.9,1.06,3.4,2.22,6.86,2.22a2.93,2.93,0,0,0,2.77-1.31c.88-1.47-.2-2.29-2.68-3.65l-1.21-.77c-3.69-2.43-5.26-4.77-3.55-8.82,1.1-2.59,4-4.56,8.85-4.56a14.46,14.46,0,0,1,8.24,2.76l-3.47,4A7.88,7.88,0,0,0,80,34.43a3,3,0,0,0-2.71,1.17c-.65,1.29.24,2.16,2.16,3.32l1.44.9c4.47,2.73,5.54,5.61,4.4,8.3-1.93,4.63-5.69,5.66-9.64,5.66A18,18,0,0,1,66.15,51.16ZM39.52,52.63,37.43,34.48c-.45-2.74-2.08-4.07-4.83-4.07l.11-.64H43.39L44,38.95c0,1.41.32,3.91.2,5.94h.1c.4-1.61,1.24-2.89,2.71-5.42l5.71-9.69h6.62L46.09,52.63Zm16.07,0,7.12-22.86h6.35L61.94,52.63Zm29.93,0L98,29.78h8.45l2.14,22.81H102.1l-.16-3.39-7.93,0-1.63,3.42ZM101.72,45l-.32-5.84a51.23,51.23,0,0,1,0-5.39h-.08c-.4,1.15-2,4.54-2.78,6.23l-2.36,5Zm13.66-16,.32-2.69a4.78,4.78,0,0,0,1.27.19c1.11,0,2-.87,2.76-2.53l-2.35-13.41H121l.91,6.68c.23,1.7.36,2.92.38,3.59a29.37,29.37,0,0,1,2-4.32l3.2-5.95h3.85L123,25.24a18.56,18.56,0,0,1-1.61,2.54A4.21,4.21,0,0,1,120,28.93a4.29,4.29,0,0,1-2,.42A9.23,9.23,0,0,1,115.38,29Zm-97.8-6.42A6.29,6.29,0,0,1,15.88,18a8.28,8.28,0,0,1,1.52-4.89,7,7,0,0,1,6-2.9,5.17,5.17,0,0,1,3.92,1.52A5.88,5.88,0,0,1,28.76,16a10,10,0,0,1-.26,2.36H19.39c0,.14,0,.26,0,.33a2.94,2.94,0,0,0,.78,2.15,2.37,2.37,0,0,0,1.86.85,3.1,3.1,0,0,0,2.82-1.89l3.25.56A6.49,6.49,0,0,1,22,24.23,5.94,5.94,0,0,1,17.58,22.53Zm47.55,0A6.2,6.2,0,0,1,63.43,18,8.23,8.23,0,0,1,65,13.1a7,7,0,0,1,6-2.9,5.2,5.2,0,0,1,3.92,1.52A5.91,5.91,0,0,1,76.3,16,9.66,9.66,0,0,1,76,18.34H66.93a3,3,0,0,0,0,.33,2.93,2.93,0,0,0,.78,2.15,2.39,2.39,0,0,0,1.86.85,3.12,3.12,0,0,0,2.82-1.89l3.24.56a6.5,6.5,0,0,1-6.09,3.91A5.94,5.94,0,0,1,65.13,22.53Zm14,.27a6,6,0,0,1-1.29-4.18,9.93,9.93,0,0,1,1.81-5.83,5.63,5.63,0,0,1,4.84-2.59,4.49,4.49,0,0,1,4.06,2.15L90,5.4h3.64L89.8,23.93H86.35l.3-1.47a7.13,7.13,0,0,1-1.94,1.38,6,6,0,0,1-2.16.39A4.32,4.32,0,0,1,79.17,22.8Zm24.92-1.09-.47,2.22h-3.31L104.18,5.4h3.65l-1.3,6.21a6.94,6.94,0,0,1,1.87-1.08,5.61,5.61,0,0,1,1.88-.32,4.34,4.34,0,0,1,3.42,1.43A6,6,0,0,1,115,15.77a10.73,10.73,0,0,1-.61,3.53,7.45,7.45,0,0,1-1.62,2.81,6.87,6.87,0,0,1-2.1,1.61,5.45,5.45,0,0,1-2.32.51A4.48,4.48,0,0,1,104.09,21.71ZM4.31,23.93,1,5.4H4.79l2.35,14,7.69-14h3.79L8.4,23.93Zm25.32,0,2.8-13.41h3.41l-.56,2.6c1.27-1.94,2.63-2.92,4.12-2.92a4.29,4.29,0,0,1,1.68.4L39.7,13.54a3.37,3.37,0,0,0-1.06-.16,3.2,3.2,0,0,0-1.89.7A4.8,4.8,0,0,0,35.23,16a19.82,19.82,0,0,0-1.08,3.74l-.89,4.21Zm10.29,0,2.8-13.41h3.64L43.56,23.93Zm7.55,0,2.26-10.76h-2l.55-2.65h2l.29-1.37a9.19,9.19,0,0,1,.68-2.27,3.1,3.1,0,0,1,1.28-1.31,4.79,4.79,0,0,1,2.25-.47,10.78,10.78,0,0,1,3.51.61l-.7,2.57a7.4,7.4,0,0,0-2.12-.42,1.12,1.12,0,0,0-.93.37,4.22,4.22,0,0,0-.42,1.33l-.19,1h2.57l-.56,2.65H53.36L51.12,23.93Zm8.28,0,2.81-13.41H62.2L59.39,23.93Zm30-3.09a4.51,4.51,0,0,0,1.37-2.05,7.75,7.75,0,0,0,.51-2.67,3.37,3.37,0,0,0-.78-2.34A2.32,2.32,0,0,0,85,12.86a3,3,0,0,0-2.62,1.79,7.61,7.61,0,0,0-1,3.83,3.32,3.32,0,0,0,.72,2.25,2.32,2.32,0,0,0,1.79.79A2.92,2.92,0,0,0,85.76,20.84Zm23.76,0a4.82,4.82,0,0,0,1.38-2.1,8.18,8.18,0,0,0,.54-2.9,3.14,3.14,0,0,0-.74-2.22,2.27,2.27,0,0,0-1.78-.82,2.84,2.84,0,0,0-2.35,1.26,6.84,6.84,0,0,0-1.36,4.4,3.12,3.12,0,0,0,.76,2.2,2.36,2.36,0,0,0,1.81.84A2.69,2.69,0,0,0,109.52,20.84ZM25.46,15.77a3.39,3.39,0,0,0-.67-2.25,2.3,2.3,0,0,0-1.8-.73,2.88,2.88,0,0,0-2,.84,4.5,4.5,0,0,0-1.22,2.5h5.69C25.45,16,25.46,15.84,25.46,15.77Zm47.53,0a3.41,3.41,0,0,0-.66-2.25,2.32,2.32,0,0,0-1.8-.73,2.88,2.88,0,0,0-2,.84,4.48,4.48,0,0,0-1.21,2.5H73A3.1,3.1,0,0,0,73,15.77ZM43.11,8.69l.69-3.3h3.63l-.68,3.3Zm15.83,0,.68-3.3h3.64l-.68,3.3Z"/></g></g><g id="Group_5" data-name="Group 5"><path class="cls-3" d="M131.65,0V55.59h36.52V0Z"/><g id="Group_6" data-name="Group 6"><path class="cls-3" d="M168.17,0V55.58H301.29V0Z"/><path d="M291.93,8.56h2.42c0,5.49,0,11,0,16.46h-2.42V23.78a4.35,4.35,0,0,1-2.23,1.39,5.42,5.42,0,0,1-5-1.46,6.19,6.19,0,0,1,0-8.41,5.35,5.35,0,0,1,5.78-1.14,5.87,5.87,0,0,1,1.45,1.09Q291.94,11.91,291.93,8.56Zm-4.07,7.61A3.1,3.1,0,0,0,286,17.63,3.87,3.87,0,0,0,286.4,22a3.3,3.3,0,0,0,4.44.34,3.74,3.74,0,0,0,.12-5.47A3.33,3.33,0,0,0,287.86,16.17ZM172.92,9h4c1.52,3.79,3.08,7.56,4.6,11.35,1.15-2.64,2.18-5.34,3.29-8,.45-1.11.93-2.21,1.34-3.33,1.34,0,2.68,0,4,0,0,5.34,0,10.68,0,16h-2.63c0-4.34,0-8.68,0-13-1.5,3.84-3.07,7.64-4.6,11.46h-2.74c-1.55-3.79-3.08-7.58-4.64-11.37,0,4.31,0,8.62,0,12.92h-2.61Q172.92,17,172.92,9Zm46.45,1.74h2.42v3.32H226c0,.73,0,1.47,0,2.2H221.8c0,1.58,0,3.16,0,4.74a1.88,1.88,0,0,0,1,1.88,3.59,3.59,0,0,0,2.88-.62c.33.64.65,1.28,1,1.94a5.88,5.88,0,0,1-4.14,1A3.46,3.46,0,0,1,220,23.82a5.33,5.33,0,0,1-.67-3q0-2.3,0-4.6H217.2V14.06h2.17Zm-25.26,4.54A5.3,5.3,0,0,1,200,14.22a4.82,4.82,0,0,1,1.36,1.09c0-.42,0-.84,0-1.25h2.42q0,5.49,0,11h-2.42c0-.42,0-.84,0-1.26a4.25,4.25,0,0,1-2.48,1.46,5.46,5.46,0,0,1-4.92-1.62A6.19,6.19,0,0,1,194.11,15.27Zm3.18.89a3.07,3.07,0,0,0-2,1.62,3.84,3.84,0,0,0,.62,4.36,3.33,3.33,0,0,0,4.32.15,3.78,3.78,0,0,0,.25-5.28A3.3,3.3,0,0,0,197.29,16.16Zm9.71-.28a3.93,3.93,0,0,1,3.23-2,8.72,8.72,0,0,1,5.49,1.09c-.34.63-.7,1.26-1,1.9a7,7,0,0,0-4-.89,1.62,1.62,0,0,0-1.37.88.86.86,0,0,0,.42,1.12,7,7,0,0,0,2,.46,6.25,6.25,0,0,1,3.38,1.23,3,3,0,0,1,.65,3.26A3.82,3.82,0,0,1,213,25a8.51,8.51,0,0,1-6.75-1.16c.38-.62.74-1.24,1.15-1.84A6,6,0,0,0,212,23.09a1.7,1.7,0,0,0,1.45-.94.93.93,0,0,0-.58-1.14,8.66,8.66,0,0,0-2.46-.5,5,5,0,0,1-2.9-1.24A3.15,3.15,0,0,1,207,15.88Zm22.29-.45a5.5,5.5,0,0,1,6.14-1.24,5.13,5.13,0,0,1,2.77,3.31,8.88,8.88,0,0,1,.25,2.92c-2.7,0-5.4,0-8.1,0a3.15,3.15,0,0,0,1.77,2.44,4.71,4.71,0,0,0,4.64-.86c.41.57.81,1.16,1.21,1.74a6.9,6.9,0,0,1-5.15,1.53,5.28,5.28,0,0,1-5-5A6.18,6.18,0,0,1,229.3,15.44Zm2.64.77a3.09,3.09,0,0,0-1.57,2.37H236a3.62,3.62,0,0,0-.81-1.84A2.85,2.85,0,0,0,231.94,16.2Zm11.63-1a4,4,0,0,1,3.73-1.42,2.49,2.49,0,0,1,1.26.34c-.16.79-.37,1.57-.56,2.35a3.71,3.71,0,0,0-2.94-.18,2.71,2.71,0,0,0-1.46,2.54c0,2.05,0,4.11,0,6.17-.81,0-1.62,0-2.43,0v-11h2.39Zm6.58.84a5.86,5.86,0,0,1,8.85-.52c-.54.54-1,1.12-1.57,1.65a4,4,0,0,0-2-1.08,3.17,3.17,0,0,0-3.06,1.13,3.94,3.94,0,0,0-.22,4.28A3.12,3.12,0,0,0,255,23a4.14,4.14,0,0,0,2.53-1.15c.5.57,1,1.12,1.5,1.68a5.9,5.9,0,0,1-8.43,0A6.21,6.21,0,0,1,250.15,16Zm11.27,0a5.35,5.35,0,0,1,4.69-2.25,4.19,4.19,0,0,1,3.14,1.53c0-.41,0-.83,0-1.25h2.43q0,5.49,0,11h-2.43V23.77a4.24,4.24,0,0,1-2.14,1.37A5.41,5.41,0,0,1,262,23.77,6.21,6.21,0,0,1,261.42,16Zm3.73.16a3.46,3.46,0,0,0-2.25,3.95,3.3,3.3,0,0,0,1.92,2.63,3.34,3.34,0,0,0,3.4-.5,3.75,3.75,0,0,0,0-5.44A3.36,3.36,0,0,0,265.15,16.18Zm12.39-.95c1.11-1.57,3.34-1.76,5-1.16-.2.8-.4,1.59-.57,2.4a3.71,3.71,0,0,0-3.12-.08,2.81,2.81,0,0,0-1.3,2.43c0,2.07,0,4.14,0,6.21-.81,0-1.62,0-2.43,0,0-3.65,0-7.3,0-10.95h2.39ZM297,24a.71.71,0,0,1,.85.79.73.73,0,0,1-1.33.28A.71.71,0,0,1,297,24Zm-.15.27c-.36.25-.17.68,0,1h.42c.1-.1.19-.2.3-.29A.52.52,0,0,0,296.82,24.25Zm0,.05.5.08c.35.35-.31.77-.52.36C296.84,24.63,296.84,24.42,296.85,24.31Zm.23.2Z"/><path d="M279.31,30.84h2.35c0,5.29,0,10.58,0,15.87-.78,0-1.57,0-2.36,0,0-.4,0-.79,0-1.19a4.14,4.14,0,0,1-2.22,1.36,5.23,5.23,0,0,1-4.93-1.56,6,6,0,0,1,0-7.75A5.15,5.15,0,0,1,278,36.31a4.55,4.55,0,0,1,1.32,1.06Zm-3.73,7.32a3,3,0,0,0-1.88,1.29,3.78,3.78,0,0,0,.16,4.2,3.18,3.18,0,0,0,4.4.48,3.61,3.61,0,0,0,.1-5.3A3.2,3.2,0,0,0,275.57,38.16Zm-102-5.53A7.28,7.28,0,0,1,178.85,31a9.69,9.69,0,0,1,5,1.66c-.45.69-.83,1.4-1.33,2.06a7.73,7.73,0,0,0-4.42-1.34,4,4,0,0,0-2.79,1,1.7,1.7,0,0,0-.16,2.28,4,4,0,0,0,2.22.94,13.35,13.35,0,0,1,4.74,1.19,3.59,3.59,0,0,1,1.88,3,4.27,4.27,0,0,1-1.22,3.39A7,7,0,0,1,177.69,47a10,10,0,0,1-6.07-2.09c.46-.66.92-1.33,1.36-2a8.06,8.06,0,0,0,5,1.7,4,4,0,0,0,3-1.19,1.56,1.56,0,0,0-.13-2.19,6.7,6.7,0,0,0-3-1c-1.6-.2-3.35-.43-4.57-1.59A4.33,4.33,0,0,1,173.55,32.63Zm70.66.47A8.12,8.12,0,0,1,249.9,31a7.31,7.31,0,0,1,6.37,3.24l-2.12,1.4a5.16,5.16,0,0,0-2.95-2.07,5.62,5.62,0,0,0-5,1.2,6,6,0,0,0-.69,7.69,5.31,5.31,0,0,0,8.65-.11c.68.5,1.38,1,2.05,1.51a7.21,7.21,0,0,1-4.84,3,8.63,8.63,0,0,1-6.43-1.38,7.79,7.79,0,0,1-3.14-6.42A7.93,7.93,0,0,1,244.21,33.1Zm-57.32,4.63a5.26,5.26,0,0,1,7.16-.81,6,6,0,0,1,1.87,5.39h-7.79A3,3,0,0,0,190,44.74a4.64,4.64,0,0,0,4.31-.9l1.17,1.67A6.57,6.57,0,0,1,190.73,47a5.36,5.36,0,0,1-3.13-1.16,5.31,5.31,0,0,1-1.85-3.58A6.13,6.13,0,0,1,186.89,37.73Zm2.19.89a3.55,3.55,0,0,0-1,1.92h5.44a3,3,0,0,0-1.34-2.23A2.81,2.81,0,0,0,189.09,38.62Zm9.54-.6a5.7,5.7,0,0,1,8.14-.8c.1.14.43.3.21.48-.44.51-.92,1-1.38,1.48a3.68,3.68,0,0,0-2.59-1.1,3,3,0,0,0-2.49,1.39,3.8,3.8,0,0,0,0,3.89,3,3,0,0,0,3.1,1.39,4.25,4.25,0,0,0,2.07-1.06c.49.53,1,1.07,1.46,1.61a5.64,5.64,0,0,1-6.36,1.23,5.12,5.12,0,0,1-3-3.6A6.07,6.07,0,0,1,198.63,38Zm25.58-.77A4.25,4.25,0,0,1,229,36.19c-.19.77-.37,1.53-.56,2.3a3.5,3.5,0,0,0-3.09,0,2.8,2.8,0,0,0-1.18,2.39c0,2,0,3.91,0,5.87h-2.32c0-3.53,0-7,0-10.56h2.31Zm6.48.75a5.23,5.23,0,0,1,7.42-1,6.06,6.06,0,0,1,1.8,5.34h-7.8a3.07,3.07,0,0,0,1.73,2.37,4.54,4.54,0,0,0,4.45-.85l1.17,1.68A6.59,6.59,0,0,1,234.55,47a5.25,5.25,0,0,1-3.28-1.42,5.32,5.32,0,0,1-1.49-3A6.37,6.37,0,0,1,230.7,38Zm2.54.5a3.32,3.32,0,0,0-1.11,2c1.82,0,3.64,0,5.46,0a3.62,3.62,0,0,0-.94-1.93A2.77,2.77,0,0,0,233.24,38.49ZM262.13,36a6.18,6.18,0,0,1,4.43.73A5.37,5.37,0,0,1,269,40.21a5.76,5.76,0,0,1-.89,4.49,5.9,5.9,0,0,1-6.61,2,5.36,5.36,0,0,1-3.34-3.11,5.51,5.51,0,0,1,4-7.58Zm.57,2.15a3.14,3.14,0,0,0-1.79,1.08,3.59,3.59,0,0,0-.16,4.19,3.35,3.35,0,0,0,4.64.75,3.53,3.53,0,0,0,.76-4.71A3.33,3.33,0,0,0,262.7,38.16Zm22.54-.47a5.23,5.23,0,0,1,7.38-.53,6.11,6.11,0,0,1,1.62,5.15h-7.79a3,3,0,0,0,1.95,2.46,4.66,4.66,0,0,0,4.22-.93l1.17,1.68a6.75,6.75,0,0,1-5,1.45,5.13,5.13,0,0,1-3.22-1.45A5.35,5.35,0,0,1,284,42.13,6.13,6.13,0,0,1,285.23,37.68Zm2.55.64a3.15,3.15,0,0,0-1.34,2.21h5.44a3.19,3.19,0,0,0-1.12-2.1A2.82,2.82,0,0,0,287.79,38.33Zm-78.73-2.17h2.35c0,2,0,4,0,6a2.58,2.58,0,0,0,1.21,2.38,3.06,3.06,0,0,0,3.07-.26,3,3,0,0,0,.84-2.33c0-1.92,0-3.84,0-5.76h2.31v6.41a4.42,4.42,0,0,1-1.36,3.18A5.15,5.15,0,0,1,214,47a5.33,5.33,0,0,1-3.45-1.14,4.53,4.53,0,0,1-1.49-3.48C209,40.32,209.07,38.24,209.05,36.16ZM294.91,46c.4,0,1-.2,1.14.36l.34-.43c0,.14,0,.42.05.56a5.92,5.92,0,0,0-.77.17c0-.21,0-.43,0-.64-.49,0-.29.46-.37.73a1.16,1.16,0,0,1-.12-.58Z"/></g></g><g id="Group_7" data-name="Group 7"><path class="cls-3" d="M448.92,0V55.59h36.47V0Z"/><g id="Group_8" data-name="Group 8"><path class="cls-3" d="M485.38,0V55.58H596.54V0Z"/><g id="Group_9" data-name="Group 9"><path d="M504.38,5.89a22.34,22.34,0,0,1,24.49,11.86H523a17.25,17.25,0,0,0-29.48,2.32,17.25,17.25,0,0,0,25.7,21.58,18,18,0,0,0,4.51-4.92q33,0,66.09,0a3.4,3.4,0,0,1,2.67,1.55,5.5,5.5,0,0,1,.84,3.94H526a22.35,22.35,0,1,1-21.6-36.32Zm18.83,13.52c3.59,0,7.18,0,10.76,0a5.17,5.17,0,0,1,4.37,2.3,5.32,5.32,0,0,1,.78,4H530.6a7.69,7.69,0,0,1-5.77-2.79A8,8,0,0,1,523.21,19.41Zm63.29,5.26h8.88v2.2h-3.16v8.2c-.85,0-1.71,0-2.56,0,0-2.73,0-5.46,0-8.18H586.5ZM551,26.17a5.32,5.32,0,0,1,7.06-.05L557,27.89a3.27,3.27,0,0,0-4-.43,2.87,2.87,0,0,0,.75,4.73,3.41,3.41,0,0,0,3.43-1l1.2,1.71a5.42,5.42,0,0,1-6.79.69A5,5,0,0,1,551,26.17Zm9,.07a5.25,5.25,0,0,1,7.13-.08c-.38.56-.72,1.14-1.07,1.73a3.9,3.9,0,0,0-2.56-.95,2.39,2.39,0,0,0-2.18,1.44,2.89,2.89,0,0,0,1.36,3.78,3.31,3.31,0,0,0,3.5-1l1.2,1.7a5.35,5.35,0,0,1-7.05.5A5.08,5.08,0,0,1,560,26.24Zm-19.37,8.06c1.08-3.12,2.11-6.24,3.19-9.35h2.42c1.06,3.12,2.13,6.23,3.17,9.35h-2.39c-.19-.64-.38-1.28-.57-1.92h-2.88l-.54,1.92Zm4.4-7.12c-.24,1.12-.58,2.22-.9,3.32h1.77C545.63,29.4,545.28,28.31,545.07,27.19ZM568.55,25h5.87v2h-3.55v1.69h2.84v2h-2.84v1.72h3.71c0,.65,0,1.3,0,2-2,0-4,0-6,0C568.53,31.19,568.56,28.07,568.55,25Zm7.59,4.47h9.59a2.9,2.9,0,0,1-2.65,2h-4.61v2.88c-.78,0-1.55,0-2.33,0C576.16,32.69,576.14,31.06,576.14,29.43Z"/><path d="M495.51,19.4h4.89A2.76,2.76,0,0,1,503,21.32c.69,2.34,1.35,4.7,2,7l.3,0c.76-2.43,1.39-4.91,2.15-7.34A2.77,2.77,0,0,1,510,19.39h5V34.66h-4.88q0-4.51,0-9c-.37-.12-.37.27-.46.48-.87,2.85-1.75,5.69-2.62,8.53h-3.51c-.87-2.81-1.74-5.62-2.59-8.43-.08-.25-.11-.6-.44-.64a5.47,5.47,0,0,0-.05.63q0,4.22,0,8.43h-4.87C495.51,29.57,495.52,24.48,495.51,19.4Zm21.47,0c1.64,0,3.28,0,4.92,0q0,7.62,0,15.25c-1.65,0-3.28,0-4.92,0Q517,27,517,19.39Zm58.22,5.52h6.9a3.54,3.54,0,0,1,2.14.61,3.48,3.48,0,0,1,1.42,3.55h-5.33A5.4,5.4,0,0,1,577,27.95,5.22,5.22,0,0,1,575.2,24.91Zm-51.27,1.4c5,0,10,0,15,0a5.33,5.33,0,0,1-3.12,3.2c1.15,1.7,2.29,3.43,3.44,5.14-1.88,0-3.76,0-5.64,0-.82-1.62-1.68-3.23-2.53-4.83-.76,0-1.51,0-2.26,0,0,1.61,0,3.22,0,4.83h-4.88C523.93,31.88,523.94,29.09,523.93,26.31Z"/></g></g></g></g></g></g></g></g></svg>